<svg width="267" height="88" viewBox="0 0 267 88" fill="none" xmlns="http://www.w3.org/2000/svg">
<g clip-path="url(#clip0_48_1449)">
<g clip-path="url(#clip1_48_1449)">
<rect x="0.5" width="84" height="40" rx="8" fill="white"/>
<path d="M13.3608 24H16.8935C18.892 24 19.8722 22.9815 19.8722 21.6222C19.8722 20.3011 18.9347 19.5256 18.0057 19.4787V19.3935C18.858 19.1932 19.5312 18.5966 19.5312 17.5355C19.5312 16.2358 18.5938 15.2727 16.7017 15.2727H13.3608V24ZM14.9418 22.679V20.1222H16.6847C17.6605 20.1222 18.2656 20.7188 18.2656 21.4986C18.2656 22.1932 17.7884 22.679 16.642 22.679H14.9418ZM14.9418 18.9844V16.5767H16.5398C17.4688 16.5767 17.9503 17.0668 17.9503 17.7401C17.9503 18.5071 17.3281 18.9844 16.5057 18.9844H14.9418ZM24.3944 24.1278C26.3121 24.1278 27.5308 22.777 27.5308 20.7528C27.5308 18.7244 26.3121 17.3693 24.3944 17.3693C22.4768 17.3693 21.2581 18.7244 21.2581 20.7528C21.2581 22.777 22.4768 24.1278 24.3944 24.1278ZM24.403 22.892C23.3419 22.892 22.822 21.946 22.822 20.7486C22.822 19.5511 23.3419 18.5923 24.403 18.5923C25.447 18.5923 25.9669 19.5511 25.9669 20.7486C25.9669 21.946 25.447 22.892 24.403 22.892ZM32.0552 24.1278C33.9728 24.1278 35.1916 22.777 35.1916 20.7528C35.1916 18.7244 33.9728 17.3693 32.0552 17.3693C30.1376 17.3693 28.9189 18.7244 28.9189 20.7528C28.9189 22.777 30.1376 24.1278 32.0552 24.1278ZM32.0638 22.892C31.0027 22.892 30.4828 21.946 30.4828 20.7486C30.4828 19.5511 31.0027 18.5923 32.0638 18.5923C33.1078 18.5923 33.6277 19.5511 33.6277 20.7486C33.6277 21.946 33.1078 22.892 32.0638 22.892ZM40.1294 17.4545H38.8382V15.8864H37.2956V17.4545H36.3666V18.6477H37.2956V22.2869C37.287 23.5185 38.1819 24.1236 39.341 24.0895C39.7799 24.0767 40.0825 23.9915 40.2487 23.9361L39.9887 22.7301C39.9035 22.7514 39.7288 22.7898 39.537 22.7898C39.1492 22.7898 38.8382 22.6534 38.8382 22.0312V18.6477H40.1294V17.4545ZM46.859 19.1847C46.646 18.0767 45.7596 17.3693 44.2255 17.3693C42.6488 17.3693 41.5749 18.1449 41.5792 19.3551C41.5749 20.3097 42.163 20.9403 43.4201 21.2003L44.5366 21.4347C45.1374 21.5668 45.4187 21.8097 45.4187 22.1804C45.4187 22.6278 44.9329 22.9645 44.1999 22.9645C43.4926 22.9645 43.0323 22.6577 42.9002 22.0696L41.396 22.2145C41.5877 23.4162 42.5977 24.1278 44.2042 24.1278C45.8406 24.1278 46.9954 23.2798 46.9997 22.0398C46.9954 21.1065 46.3945 20.5355 45.1588 20.267L44.0423 20.0284C43.3775 19.8793 43.1133 19.6491 43.1176 19.2699C43.1133 18.8267 43.6034 18.5199 44.2468 18.5199C44.9585 18.5199 45.3335 18.9077 45.4528 19.3381L46.859 19.1847ZM51.9001 17.4545H50.6089V15.8864H49.0663V17.4545H48.1374V18.6477H49.0663V22.2869C49.0578 23.5185 49.9527 24.1236 51.1118 24.0895C51.5507 24.0767 51.8533 23.9915 52.0195 23.9361L51.7595 22.7301C51.6743 22.7514 51.4996 22.7898 51.3078 22.7898C50.92 22.7898 50.6089 22.6534 50.6089 22.0312V18.6477H51.9001V17.4545ZM53.5503 24H55.0929V20.152C55.0929 19.321 55.7193 18.733 56.5673 18.733C56.8273 18.733 57.1511 18.7798 57.2832 18.8224V17.4034C57.1426 17.3778 56.8997 17.3608 56.7292 17.3608C55.9792 17.3608 55.3528 17.7869 55.1142 18.5455H55.046V17.4545H53.5503V24ZM60.4227 24.1321C61.4497 24.1321 62.0633 23.6506 62.3446 23.1009H62.3957V24H63.8787V19.6193C63.8787 17.8892 62.4682 17.3693 61.2196 17.3693C59.8432 17.3693 58.7863 17.983 58.4454 19.1761L59.8858 19.3807C60.0392 18.9332 60.4738 18.5497 61.2281 18.5497C61.944 18.5497 62.3361 18.9162 62.3361 19.5597V19.5852C62.3361 20.0284 61.8716 20.0497 60.7167 20.1733C59.4468 20.3097 58.2324 20.6889 58.2324 22.1634C58.2324 23.4503 59.1741 24.1321 60.4227 24.1321ZM60.8233 22.9986C60.1798 22.9986 59.7196 22.7045 59.7196 22.1378C59.7196 21.5455 60.2352 21.2983 60.9255 21.2003C61.3304 21.1449 62.14 21.0426 62.3403 20.8807V21.652C62.3403 22.3807 61.7522 22.9986 60.8233 22.9986ZM65.7898 26.4545H67.3324V22.9688H67.3963C67.6392 23.446 68.1463 24.1151 69.2713 24.1151C70.814 24.1151 71.9688 22.892 71.9688 20.7358C71.9688 18.554 70.7799 17.3693 69.2671 17.3693C68.1122 17.3693 67.6307 18.0639 67.3963 18.5369H67.3068V17.4545H65.7898V26.4545ZM67.3026 20.7273C67.3026 19.4574 67.848 18.6349 68.8409 18.6349C69.8679 18.6349 70.3963 19.5085 70.3963 20.7273C70.3963 21.9545 69.8594 22.8494 68.8409 22.8494C67.8566 22.8494 67.3026 21.9972 67.3026 20.7273Z" fill="#36B37E"/>
<rect x="92.5" width="103" height="40" rx="8" fill="white"/>
<path d="M105.361 24H106.942V20.804H108.553L110.266 24H112.03L110.142 20.5398C111.169 20.1264 111.71 19.2486 111.71 18.0639C111.71 16.3977 110.636 15.2727 108.634 15.2727H105.361V24ZM106.942 19.4915V16.5938H108.391C109.571 16.5938 110.099 17.1349 110.099 18.0639C110.099 18.9929 109.571 19.4915 108.399 19.4915H106.942ZM117.629 21.2472C117.629 22.2443 116.918 22.7386 116.236 22.7386C115.494 22.7386 115 22.2145 115 21.3835V17.4545H113.457V21.6222C113.457 23.1946 114.352 24.0852 115.639 24.0852C116.619 24.0852 117.31 23.5696 117.608 22.8366H117.676V24H119.172V17.4545H117.629V21.2472ZM121.186 24H122.703V22.9688H122.793C123.036 23.446 123.543 24.1151 124.668 24.1151C126.21 24.1151 127.365 22.892 127.365 20.7358C127.365 18.554 126.176 17.3693 124.664 17.3693C123.509 17.3693 123.027 18.0639 122.793 18.5369H122.729V15.2727H121.186V24ZM122.699 20.7273C122.699 19.4574 123.245 18.6349 124.237 18.6349C125.264 18.6349 125.793 19.5085 125.793 20.7273C125.793 21.9545 125.256 22.8494 124.237 22.8494C123.253 22.8494 122.699 21.9972 122.699 20.7273ZM129.773 26.4418C130.975 26.4418 131.669 25.8196 132.04 24.7926L134.669 17.4631L133.02 17.4545L131.507 22.3977H131.439L129.93 17.4545H128.294L130.668 24.1364L130.536 24.4901C130.242 25.2145 129.798 25.2699 129.125 25.0781L128.767 26.2756C128.976 26.3651 129.351 26.4418 129.773 26.4418ZM142.291 24.1278C144.209 24.1278 145.428 22.777 145.428 20.7528C145.428 18.7244 144.209 17.3693 142.291 17.3693C140.374 17.3693 139.155 18.7244 139.155 20.7528C139.155 22.777 140.374 24.1278 142.291 24.1278ZM142.3 22.892C141.239 22.892 140.719 21.946 140.719 20.7486C140.719 19.5511 141.239 18.5923 142.3 18.5923C143.344 18.5923 143.864 19.5511 143.864 20.7486C143.864 21.946 143.344 22.892 142.3 22.892ZM148.64 20.1648C148.64 19.2188 149.211 18.6733 150.025 18.6733C150.822 18.6733 151.299 19.1974 151.299 20.071V24H152.841V19.8324C152.846 18.2642 151.951 17.3693 150.6 17.3693C149.62 17.3693 148.947 17.8381 148.648 18.5668H148.572V17.4545H147.097V24H148.64V20.1648ZM158.106 24H159.649V20.152C159.649 19.321 160.275 18.733 161.123 18.733C161.383 18.733 161.707 18.7798 161.839 18.8224V17.4034C161.699 17.3778 161.456 17.3608 161.285 17.3608C160.535 17.3608 159.909 17.7869 159.67 18.5455H159.602V17.4545H158.106V24ZM164.979 24.1321C166.006 24.1321 166.619 23.6506 166.901 23.1009H166.952V24H168.435V19.6193C168.435 17.8892 167.024 17.3693 165.776 17.3693C164.399 17.3693 163.342 17.983 163.001 19.1761L164.442 19.3807C164.595 18.9332 165.03 18.5497 165.784 18.5497C166.5 18.5497 166.892 18.9162 166.892 19.5597V19.5852C166.892 20.0284 166.428 20.0497 165.273 20.1733C164.003 20.3097 162.788 20.6889 162.788 22.1634C162.788 23.4503 163.73 24.1321 164.979 24.1321ZM165.379 22.9986C164.736 22.9986 164.276 22.7045 164.276 22.1378C164.276 21.5455 164.791 21.2983 165.481 21.2003C165.886 21.1449 166.696 21.0426 166.896 20.8807V21.652C166.896 22.3807 166.308 22.9986 165.379 22.9986ZM170.346 24H171.888V17.4545H170.346V24ZM171.121 16.5256C171.611 16.5256 172.012 16.1506 172.012 15.6903C172.012 15.2259 171.611 14.8509 171.121 14.8509C170.627 14.8509 170.226 15.2259 170.226 15.6903C170.226 16.1506 170.627 16.5256 171.121 16.5256ZM175.377 15.2727H173.835V24H175.377V15.2727ZM182.497 19.1847C182.284 18.0767 181.397 17.3693 179.863 17.3693C178.287 17.3693 177.213 18.1449 177.217 19.3551C177.213 20.3097 177.801 20.9403 179.058 21.2003L180.174 21.4347C180.775 21.5668 181.057 21.8097 181.057 22.1804C181.057 22.6278 180.571 22.9645 179.838 22.9645C179.13 22.9645 178.67 22.6577 178.538 22.0696L177.034 22.2145C177.226 23.4162 178.235 24.1278 179.842 24.1278C181.478 24.1278 182.633 23.2798 182.637 22.0398C182.633 21.1065 182.032 20.5355 180.797 20.267L179.68 20.0284C179.015 19.8793 178.751 19.6491 178.755 19.2699C178.751 18.8267 179.241 18.5199 179.885 18.5199C180.596 18.5199 180.971 18.9077 181.091 19.3381L182.497 19.1847Z" fill="#36B37E"/>
<rect x="203.5" width="63" height="40" rx="8" fill="white"/>
<path d="M216.361 24H217.942V20.804H219.553L221.266 24H223.03L221.142 20.5398C222.169 20.1264 222.71 19.2486 222.71 18.0639C222.71 16.3977 221.636 15.2727 219.634 15.2727H216.361V24ZM217.942 19.4915V16.5938H219.391C220.571 16.5938 221.099 17.1349 221.099 18.0639C221.099 18.9929 220.571 19.4915 219.399 19.4915H217.942ZM229.268 17.6719H230.79C230.76 16.1974 229.503 15.1534 227.645 15.1534C225.812 15.1534 224.436 16.1847 224.44 17.7273C224.44 18.9801 225.331 19.7003 226.767 20.071L227.76 20.3267C228.702 20.5653 229.324 20.8594 229.328 21.5369C229.324 22.2827 228.616 22.7812 227.585 22.7812C226.597 22.7812 225.829 22.3381 225.766 21.4219H224.21C224.274 23.1562 225.565 24.1321 227.598 24.1321C229.69 24.1321 230.905 23.0881 230.909 21.5497C230.905 20.0369 229.656 19.3466 228.344 19.0355L227.525 18.831C226.81 18.6605 226.034 18.358 226.043 17.6293C226.047 16.973 226.635 16.4915 227.623 16.4915C228.565 16.4915 229.187 16.9304 229.268 17.6719ZM232.61 26.4545H234.153V22.9688H234.217C234.46 23.446 234.967 24.1151 236.092 24.1151C237.634 24.1151 238.789 22.892 238.789 20.7358C238.789 18.554 237.6 17.3693 236.088 17.3693C234.933 17.3693 234.451 18.0639 234.217 18.5369H234.127V17.4545H232.61V26.4545ZM234.123 20.7273C234.123 19.4574 234.669 18.6349 235.661 18.6349C236.688 18.6349 237.217 19.5085 237.217 20.7273C237.217 21.9545 236.68 22.8494 235.661 22.8494C234.677 22.8494 234.123 21.9972 234.123 20.7273ZM243.368 24.1278C244.894 24.1278 245.942 23.3821 246.215 22.2443L244.774 22.0824C244.565 22.6364 244.054 22.9261 243.389 22.9261C242.392 22.9261 241.732 22.2699 241.719 21.1491H246.279V20.6761C246.279 18.3793 244.898 17.3693 243.287 17.3693C241.412 17.3693 240.189 18.7457 240.189 20.7656C240.189 22.8196 241.395 24.1278 243.368 24.1278ZM241.723 20.1094C241.77 19.2741 242.388 18.571 243.308 18.571C244.195 18.571 244.791 19.2188 244.8 20.1094H241.723ZM250.799 24.1278C252.444 24.1278 253.492 23.152 253.603 21.7628H252.128C251.996 22.4659 251.489 22.8707 250.811 22.8707C249.848 22.8707 249.226 22.0653 249.226 20.7273C249.226 19.4062 249.861 18.6136 250.811 18.6136C251.553 18.6136 252.009 19.0909 252.128 19.7216H253.603C253.496 18.3026 252.388 17.3693 250.79 17.3693C248.873 17.3693 247.662 18.7543 247.662 20.7528C247.662 22.7344 248.843 24.1278 250.799 24.1278Z" fill="#36B37E"/>
</g>
<g clip-path="url(#clip2_48_1449)">
<rect x="47.5" y="48" width="83" height="40" rx="8" fill="white"/>
<path d="M67.831 66.2173C67.5625 64.2784 66.071 63.1534 64.1364 63.1534C61.8565 63.1534 60.1392 64.8153 60.1392 67.6364C60.1392 70.4531 61.8352 72.1193 64.1364 72.1193C66.2116 72.1193 67.5881 70.777 67.831 69.1108L66.2372 69.1023C66.0369 70.125 65.2017 70.7003 64.1577 70.7003C62.7429 70.7003 61.7287 69.6392 61.7287 67.6364C61.7287 65.6676 62.7344 64.5724 64.1619 64.5724C65.223 64.5724 66.054 65.1733 66.2372 66.2173H67.831ZM71.4541 72.1321C72.4811 72.1321 73.0947 71.6506 73.376 71.1009H73.4271V72H74.9101V67.6193C74.9101 65.8892 73.4996 65.3693 72.251 65.3693C70.8746 65.3693 69.8177 65.983 69.4768 67.1761L70.9172 67.3807C71.0706 66.9332 71.5052 66.5497 72.2595 66.5497C72.9754 66.5497 73.3675 66.9162 73.3675 67.5597V67.5852C73.3675 68.0284 72.903 68.0497 71.7481 68.1733C70.4783 68.3097 69.2638 68.6889 69.2638 70.1634C69.2638 71.4503 70.2055 72.1321 71.4541 72.1321ZM71.8547 70.9986C71.2112 70.9986 70.751 70.7045 70.751 70.1378C70.751 69.5455 71.2666 69.2983 71.9569 69.2003C72.3618 69.1449 73.1714 69.0426 73.3717 68.8807V69.652C73.3717 70.3807 72.7837 70.9986 71.8547 70.9986ZM76.8212 74.4545H78.3638V70.9688H78.4277C78.6706 71.446 79.1777 72.1151 80.3027 72.1151C81.8454 72.1151 83.0002 70.892 83.0002 68.7358C83.0002 66.554 81.8113 65.3693 80.2985 65.3693C79.1436 65.3693 78.6621 66.0639 78.4277 66.5369H78.3383V65.4545H76.8212V74.4545ZM78.334 68.7273C78.334 67.4574 78.8794 66.6349 79.8723 66.6349C80.8993 66.6349 81.4277 67.5085 81.4277 68.7273C81.4277 69.9545 80.8908 70.8494 79.8723 70.8494C78.888 70.8494 78.334 69.9972 78.334 68.7273ZM85.4174 74.4418C86.6191 74.4418 87.3137 73.8196 87.6844 72.7926L90.3137 65.4631L88.6645 65.4545L87.1517 70.3977H87.0836L85.575 65.4545H83.9387L86.3122 72.1364L86.1801 72.4901C85.8861 73.2145 85.4429 73.2699 84.7696 73.0781L84.4117 74.2756C84.6205 74.3651 84.9955 74.4418 85.4174 74.4418ZM91.8125 72H93.3296V70.9688H93.419C93.6619 71.446 94.169 72.1151 95.294 72.1151C96.8367 72.1151 97.9915 70.892 97.9915 68.7358C97.9915 66.554 96.8026 65.3693 95.2898 65.3693C94.135 65.3693 93.6534 66.0639 93.419 66.5369H93.3551V63.2727H91.8125V72ZM93.3253 68.7273C93.3253 67.4574 93.8708 66.6349 94.8637 66.6349C95.8906 66.6349 96.419 67.5085 96.419 68.7273C96.419 69.9545 95.8821 70.8494 94.8637 70.8494C93.8793 70.8494 93.3253 69.9972 93.3253 68.7273ZM101.546 72.1321C102.573 72.1321 103.187 71.6506 103.468 71.1009H103.519V72H105.002V67.6193C105.002 65.8892 103.592 65.3693 102.343 65.3693C100.967 65.3693 99.9101 65.983 99.5692 67.1761L101.01 67.3807C101.163 66.9332 101.598 66.5497 102.352 66.5497C103.068 66.5497 103.46 66.9162 103.46 67.5597V67.5852C103.46 68.0284 102.995 68.0497 101.84 68.1733C100.571 68.3097 99.3561 68.6889 99.3561 70.1634C99.3561 71.4503 100.298 72.1321 101.546 72.1321ZM101.947 70.9986C101.304 70.9986 100.843 70.7045 100.843 70.1378C100.843 69.5455 101.359 69.2983 102.049 69.2003C102.454 69.1449 103.264 69.0426 103.464 68.8807V69.652C103.464 70.3807 102.876 70.9986 101.947 70.9986ZM106.914 72H108.456V68.152C108.456 67.321 109.083 66.733 109.931 66.733C110.191 66.733 110.514 66.7798 110.647 66.8224V65.4034C110.506 65.3778 110.263 65.3608 110.093 65.3608C109.343 65.3608 108.716 65.7869 108.477 66.5455H108.409V65.4545H106.914V72ZM113.786 72.1321C114.813 72.1321 115.427 71.6506 115.708 71.1009H115.759V72H117.242V67.6193C117.242 65.8892 115.831 65.3693 114.583 65.3693C113.206 65.3693 112.15 65.983 111.809 67.1761L113.249 67.3807C113.402 66.9332 113.837 66.5497 114.591 66.5497C115.307 66.5497 115.699 66.9162 115.699 67.5597V67.5852C115.699 68.0284 115.235 68.0497 114.08 68.1733C112.81 68.3097 111.596 68.6889 111.596 70.1634C111.596 71.4503 112.537 72.1321 113.786 72.1321ZM114.187 70.9986C113.543 70.9986 113.083 70.7045 113.083 70.1378C113.083 69.5455 113.598 69.2983 114.289 69.2003C114.694 69.1449 115.503 69.0426 115.704 68.8807V69.652C115.704 70.3807 115.116 70.9986 114.187 70.9986Z" fill="#36B37E"/>
<rect x="138.5" y="48" width="81" height="40" rx="8" fill="white"/>
<path d="M156.104 65.6719H157.625C157.595 64.1974 156.338 63.1534 154.48 63.1534C152.648 63.1534 151.271 64.1847 151.276 65.7273C151.276 66.9801 152.166 67.7003 153.602 68.071L154.595 68.3267C155.537 68.5653 156.159 68.8594 156.163 69.5369C156.159 70.2827 155.452 70.7812 154.42 70.7812C153.432 70.7812 152.665 70.3381 152.601 69.4219H151.045C151.109 71.1562 152.401 72.1321 154.433 72.1321C156.526 72.1321 157.74 71.0881 157.744 69.5497C157.74 68.0369 156.491 67.3466 155.179 67.0355L154.361 66.831C153.645 66.6605 152.869 66.358 152.878 65.6293C152.882 64.973 153.47 64.4915 154.459 64.4915C155.401 64.4915 156.023 64.9304 156.104 65.6719ZM162.343 72.1278C163.869 72.1278 164.917 71.3821 165.19 70.2443L163.75 70.0824C163.541 70.6364 163.029 70.9261 162.365 70.9261C161.367 70.9261 160.707 70.2699 160.694 69.1491H165.254V68.6761C165.254 66.3793 163.873 65.3693 162.262 65.3693C160.387 65.3693 159.164 66.7457 159.164 68.7656C159.164 70.8196 160.37 72.1278 162.343 72.1278ZM160.698 68.1094C160.745 67.2741 161.363 66.571 162.284 66.571C163.17 66.571 163.767 67.2188 163.775 68.1094H160.698ZM168.461 63.2727H166.919V72H168.461V63.2727ZM173.305 72.1278C174.831 72.1278 175.879 71.3821 176.152 70.2443L174.712 70.0824C174.503 70.6364 173.992 70.9261 173.327 70.9261C172.33 70.9261 171.669 70.2699 171.656 69.1491H176.216V68.6761C176.216 66.3793 174.835 65.3693 173.225 65.3693C171.35 65.3693 170.127 66.7457 170.127 68.7656C170.127 70.8196 171.332 72.1278 173.305 72.1278ZM171.661 68.1094C171.707 67.2741 172.325 66.571 173.246 66.571C174.132 66.571 174.729 67.2188 174.737 68.1094H171.661ZM179.424 68.1648C179.424 67.2188 179.995 66.6733 180.809 66.6733C181.605 66.6733 182.083 67.1974 182.083 68.071V72H183.625V67.8324C183.63 66.2642 182.735 65.3693 181.384 65.3693C180.404 65.3693 179.73 65.8381 179.432 66.5668H179.355V65.4545H177.881V72H179.424V68.1648ZM185.554 72H187.096V65.4545H185.554V72ZM186.329 64.5256C186.819 64.5256 187.22 64.1506 187.22 63.6903C187.22 63.2259 186.819 62.8509 186.329 62.8509C185.835 62.8509 185.434 63.2259 185.434 63.6903C185.434 64.1506 185.835 64.5256 186.329 64.5256ZM193.214 69.2472C193.214 70.2443 192.503 70.7386 191.821 70.7386C191.079 70.7386 190.585 70.2145 190.585 69.3835V65.4545H189.042V69.6222C189.042 71.1946 189.937 72.0852 191.224 72.0852C192.204 72.0852 192.895 71.5696 193.193 70.8366H193.261V72H194.757V65.4545H193.214V69.2472ZM196.703 72H198.246V68.0199C198.246 67.2145 198.783 66.669 199.448 66.669C200.1 66.669 200.547 67.108 200.547 67.7812V72H202.06V67.9176C202.06 67.1804 202.499 66.669 203.244 66.669C203.867 66.669 204.361 67.0355 204.361 67.8452V72H205.908V67.6065C205.908 66.1449 205.064 65.3693 203.862 65.3693C202.912 65.3693 202.188 65.8381 201.898 66.5668H201.83C201.578 65.8253 200.943 65.3693 200.061 65.3693C199.183 65.3693 198.527 65.821 198.254 66.5668H198.178V65.4545H196.703V72Z" fill="#36B37E"/>
</g>
</g>
<defs>
<clipPath id="clip0_48_1449">
<rect width="266" height="88" fill="white" transform="translate(0.5)"/>
</clipPath>
<clipPath id="clip1_48_1449">
<rect width="266" height="40" fill="white" transform="translate(0.5)"/>
</clipPath>
<clipPath id="clip2_48_1449">
<rect width="172" height="40" fill="white" transform="translate(47.5 48)"/>
</clipPath>
</defs>
</svg>
