<svg width="271" height="40" viewBox="0 0 271 40" fill="none" xmlns="http://www.w3.org/2000/svg">
<g clip-path="url(#clip0_48_1436)">
<rect width="89" height="40" rx="8" fill="white"/>
<path d="M16.304 15.2727V21.4091C16.2997 22.3295 15.8736 22.8196 15.1151 22.8196C14.4077 22.8196 13.9347 22.3892 13.9219 21.6818H12.3494C12.3494 23.2926 13.5256 24.1193 15.0554 24.1193C16.7386 24.1193 17.8679 23.0966 17.8722 21.4091V15.2727H16.304ZM21.7627 24.1321C22.7897 24.1321 23.4033 23.6506 23.6846 23.1009H23.7357V24H25.2187V19.6193C25.2187 17.8892 23.8082 17.3693 22.5596 17.3693C21.1832 17.3693 20.1263 17.983 19.7854 19.1761L21.2258 19.3807C21.3792 18.9332 21.8138 18.5497 22.5681 18.5497C23.284 18.5497 23.6761 18.9162 23.6761 19.5597V19.5852C23.6761 20.0284 23.2116 20.0497 22.0567 20.1733C20.7868 20.3097 19.5724 20.6889 19.5724 22.1634C19.5724 23.4503 20.5141 24.1321 21.7627 24.1321ZM22.1633 22.9986C21.5198 22.9986 21.0596 22.7045 21.0596 22.1378C21.0596 21.5455 21.5752 21.2983 22.2655 21.2003C22.6704 21.1449 23.48 21.0426 23.6803 20.8807V21.652C23.6803 22.3807 23.0922 22.9986 22.1633 22.9986ZM32.742 17.4545H31.1014L29.5929 22.3168H29.5247L28.0204 17.4545H26.3755L28.7065 24H30.4111L32.742 17.4545ZM35.8655 24.1321C36.8925 24.1321 37.5061 23.6506 37.7874 23.1009H37.8385V24H39.3215V19.6193C39.3215 17.8892 37.911 17.3693 36.6624 17.3693C35.286 17.3693 34.2291 17.983 33.8882 19.1761L35.3286 19.3807C35.482 18.9332 35.9166 18.5497 36.6709 18.5497C37.3868 18.5497 37.7789 18.9162 37.7789 19.5597V19.5852C37.7789 20.0284 37.3144 20.0497 36.1595 20.1733C34.8897 20.3097 33.6752 20.6889 33.6752 22.1634C33.6752 23.4503 34.6169 24.1321 35.8655 24.1321ZM36.2661 22.9986C35.6226 22.9986 35.1624 22.7045 35.1624 22.1378C35.1624 21.5455 35.678 21.2983 36.3684 21.2003C36.7732 21.1449 37.5828 21.0426 37.7831 20.8807V21.652C37.7831 22.3807 37.1951 22.9986 36.2661 22.9986ZM46.0437 17.6719H47.565C47.5352 16.1974 46.2781 15.1534 44.4201 15.1534C42.5877 15.1534 41.2113 16.1847 41.2156 17.7273C41.2156 18.9801 42.1062 19.7003 43.5423 20.071L44.5352 20.3267C45.4769 20.5653 46.0991 20.8594 46.1034 21.5369C46.0991 22.2827 45.3917 22.7812 44.3605 22.7812C43.3718 22.7812 42.6048 22.3381 42.5409 21.4219H40.9855C41.0494 23.1562 42.3406 24.1321 44.3732 24.1321C46.4656 24.1321 47.6801 23.0881 47.6843 21.5497C47.6801 20.0369 46.4315 19.3466 45.119 19.0355L44.3008 18.831C43.5849 18.6605 42.8093 18.358 42.8178 17.6293C42.8221 16.973 43.4102 16.4915 44.3988 16.4915C45.3406 16.4915 45.9627 16.9304 46.0437 17.6719ZM52.2407 24.1278C53.8856 24.1278 54.9339 23.152 55.0447 21.7628H53.5702C53.4381 22.4659 52.931 22.8707 52.2535 22.8707C51.2904 22.8707 50.6683 22.0653 50.6683 20.7273C50.6683 19.4062 51.3032 18.6136 52.2535 18.6136C52.995 18.6136 53.4509 19.0909 53.5702 19.7216H55.0447C54.9381 18.3026 53.8302 17.3693 52.2322 17.3693C50.3146 17.3693 49.1043 18.7543 49.1043 20.7528C49.1043 22.7344 50.2847 24.1278 52.2407 24.1278ZM56.6714 24H58.214V20.152C58.214 19.321 58.8404 18.733 59.6884 18.733C59.9484 18.733 60.2722 18.7798 60.4043 18.8224V17.4034C60.2637 17.3778 60.0208 17.3608 59.8503 17.3608C59.1003 17.3608 58.4739 17.7869 58.2353 18.5455H58.1671V17.4545H56.6714V24ZM61.7892 24H63.3318V17.4545H61.7892V24ZM62.5647 16.5256C63.0548 16.5256 63.4554 16.1506 63.4554 15.6903C63.4554 15.2259 63.0548 14.8509 62.5647 14.8509C62.0704 14.8509 61.6699 15.2259 61.6699 15.6903C61.6699 16.1506 62.0704 16.5256 62.5647 16.5256ZM65.2781 26.4545H66.8207V22.9688H66.8846C67.1275 23.446 67.6346 24.1151 68.7596 24.1151C70.3022 24.1151 71.4571 22.892 71.4571 20.7358C71.4571 18.554 70.2681 17.3693 68.7554 17.3693C67.6005 17.3693 67.119 18.0639 66.8846 18.5369H66.7951V17.4545H65.2781V26.4545ZM66.7909 20.7273C66.7909 19.4574 67.3363 18.6349 68.3292 18.6349C69.3562 18.6349 69.8846 19.5085 69.8846 20.7273C69.8846 21.9545 69.3477 22.8494 68.3292 22.8494C67.3448 22.8494 66.7909 21.9972 66.7909 20.7273ZM76.4066 17.4545H75.1154V15.8864H73.5727V17.4545H72.6438V18.6477H73.5727V22.2869C73.5642 23.5185 74.4591 24.1236 75.6182 24.0895C76.0571 24.0767 76.3597 23.9915 76.5259 23.9361L76.2659 22.7301C76.1807 22.7514 76.006 22.7898 75.8142 22.7898C75.4264 22.7898 75.1154 22.6534 75.1154 22.0312V18.6477H76.4066V17.4545Z" fill="#36B37E"/>
<rect x="97" width="55" height="40" rx="8" fill="white"/>
<path d="M109.861 24H111.442V20.804H113.053L114.766 24H116.53L114.642 20.5398C115.669 20.1264 116.21 19.2486 116.21 18.0639C116.21 16.3977 115.136 15.2727 113.134 15.2727H109.861V24ZM111.442 19.4915V16.5938H112.891C114.071 16.5938 114.599 17.1349 114.599 18.0639C114.599 18.9929 114.071 19.4915 112.899 19.4915H111.442ZM122.129 21.2472C122.129 22.2443 121.418 22.7386 120.736 22.7386C119.994 22.7386 119.5 22.2145 119.5 21.3835V17.4545H117.957V21.6222C117.957 23.1946 118.852 24.0852 120.139 24.0852C121.119 24.0852 121.81 23.5696 122.108 22.8366H122.176V24H123.672V17.4545H122.129V21.2472ZM125.686 24H127.203V22.9688H127.293C127.536 23.446 128.043 24.1151 129.168 24.1151C130.71 24.1151 131.865 22.892 131.865 20.7358C131.865 18.554 130.676 17.3693 129.164 17.3693C128.009 17.3693 127.527 18.0639 127.293 18.5369H127.229V15.2727H125.686V24ZM127.199 20.7273C127.199 19.4574 127.745 18.6349 128.737 18.6349C129.764 18.6349 130.293 19.5085 130.293 20.7273C130.293 21.9545 129.756 22.8494 128.737 22.8494C127.753 22.8494 127.199 21.9972 127.199 20.7273ZM134.273 26.4418C135.475 26.4418 136.169 25.8196 136.54 24.7926L139.169 17.4631L137.52 17.4545L136.007 22.3977H135.939L134.43 17.4545H132.794L135.168 24.1364L135.036 24.4901C134.742 25.2145 134.298 25.2699 133.625 25.0781L133.267 26.2756C133.476 26.3651 133.851 26.4418 134.273 26.4418Z" fill="#36B37E"/>
<rect x="160" width="53" height="40" rx="8" fill="white"/>
<path d="M172.861 24H174.442V20.2926H178.486V24H180.071V15.2727H178.486V18.9673H174.442V15.2727H172.861V24ZM185.351 17.4545H184.06V15.8864H182.517V17.4545H181.588V18.6477H182.517V22.2869C182.508 23.5185 183.403 24.1236 184.562 24.0895C185.001 24.0767 185.304 23.9915 185.47 23.9361L185.21 22.7301C185.125 22.7514 184.95 22.7898 184.758 22.7898C184.371 22.7898 184.06 22.6534 184.06 22.0312V18.6477H185.351V17.4545ZM187.001 24H188.544V20.0199C188.544 19.2145 189.08 18.669 189.745 18.669C190.397 18.669 190.845 19.108 190.845 19.7812V24H192.357V19.9176C192.357 19.1804 192.796 18.669 193.542 18.669C194.164 18.669 194.659 19.0355 194.659 19.8452V24H196.205V19.6065C196.205 18.1449 195.362 17.3693 194.16 17.3693C193.21 17.3693 192.485 17.8381 192.195 18.5668H192.127C191.876 17.8253 191.241 17.3693 190.359 17.3693C189.481 17.3693 188.825 17.821 188.552 18.5668H188.475V17.4545H187.001V24ZM199.673 15.2727H198.13V24H199.673V15.2727Z" fill="#36B37E"/>
<rect x="221" width="50" height="40" rx="8" fill="white"/>
<path d="M241.331 18.2173C241.062 16.2784 239.571 15.1534 237.636 15.1534C235.357 15.1534 233.639 16.8153 233.639 19.6364C233.639 22.4531 235.335 24.1193 237.636 24.1193C239.712 24.1193 241.088 22.777 241.331 21.1108L239.737 21.1023C239.537 22.125 238.702 22.7003 237.658 22.7003C236.243 22.7003 235.229 21.6392 235.229 19.6364C235.229 17.6676 236.234 16.5724 237.662 16.5724C238.723 16.5724 239.554 17.1733 239.737 18.2173H241.331ZM247.882 17.6719H249.403C249.373 16.1974 248.116 15.1534 246.258 15.1534C244.426 15.1534 243.049 16.1847 243.054 17.7273C243.054 18.9801 243.944 19.7003 245.38 20.071L246.373 20.3267C247.315 20.5653 247.937 20.8594 247.941 21.5369C247.937 22.2827 247.23 22.7812 246.198 22.7812C245.21 22.7812 244.443 22.3381 244.379 21.4219H242.823C242.887 23.1562 244.179 24.1321 246.211 24.1321C248.304 24.1321 249.518 23.0881 249.522 21.5497C249.518 20.0369 248.269 19.3466 246.957 19.0355L246.139 18.831C245.423 18.6605 244.647 18.358 244.656 17.6293C244.66 16.973 245.248 16.4915 246.237 16.4915C247.179 16.4915 247.801 16.9304 247.882 17.6719ZM256.035 17.6719H257.556C257.526 16.1974 256.269 15.1534 254.411 15.1534C252.579 15.1534 251.202 16.1847 251.207 17.7273C251.207 18.9801 252.097 19.7003 253.533 20.071L254.526 20.3267C255.468 20.5653 256.09 20.8594 256.094 21.5369C256.09 22.2827 255.383 22.7812 254.351 22.7812C253.363 22.7812 252.596 22.3381 252.532 21.4219H250.976C251.04 23.1562 252.332 24.1321 254.364 24.1321C256.457 24.1321 257.671 23.0881 257.675 21.5497C257.671 20.0369 256.422 19.3466 255.11 19.0355L254.292 18.831C253.576 18.6605 252.8 18.358 252.809 17.6293C252.813 16.973 253.401 16.4915 254.39 16.4915C255.332 16.4915 255.954 16.9304 256.035 17.6719Z" fill="#36B37E"/>
</g>
<defs>
<clipPath id="clip0_48_1436">
<rect width="271" height="40" fill="white"/>
</clipPath>
</defs>
</svg>
