<svg width="303" height="88" viewBox="0 0 303 88" fill="none" xmlns="http://www.w3.org/2000/svg">
<g clip-path="url(#clip0_48_1485)">
<g clip-path="url(#clip1_48_1485)">
<rect width="72" height="40" rx="8" fill="white"/>
<path d="M20.331 18.2173C20.0625 16.2784 18.571 15.1534 16.6364 15.1534C14.3565 15.1534 12.6392 16.8153 12.6392 19.6364C12.6392 22.4531 14.3352 24.1193 16.6364 24.1193C18.7116 24.1193 20.0881 22.777 20.331 21.1108L18.7372 21.1023C18.5369 22.125 17.7017 22.7003 16.6577 22.7003C15.2429 22.7003 14.2287 21.6392 14.2287 19.6364C14.2287 17.6676 15.2344 16.5724 16.6619 16.5724C17.723 16.5724 18.554 17.1733 18.7372 18.2173H20.331ZM24.9257 24.1278C26.8433 24.1278 28.0621 22.777 28.0621 20.7528C28.0621 18.7244 26.8433 17.3693 24.9257 17.3693C23.0081 17.3693 21.7893 18.7244 21.7893 20.7528C21.7893 22.777 23.0081 24.1278 24.9257 24.1278ZM24.9342 22.892C23.8731 22.892 23.3533 21.946 23.3533 20.7486C23.3533 19.5511 23.8731 18.5923 24.9342 18.5923C25.9783 18.5923 26.4981 19.5511 26.4981 20.7486C26.4981 21.946 25.9783 22.892 24.9342 22.892ZM32.1603 24.1151C33.2853 24.1151 33.7924 23.446 34.0353 22.9688H34.1291V24H35.6461V15.2727H34.0993V18.5369H34.0353C33.801 18.0639 33.3194 17.3693 32.1646 17.3693C30.6518 17.3693 29.4629 18.554 29.4629 20.7358C29.4629 22.892 30.6177 24.1151 32.1603 24.1151ZM32.5907 22.8494C31.5723 22.8494 31.0353 21.9545 31.0353 20.7273C31.0353 19.5085 31.5637 18.6349 32.5907 18.6349C33.5836 18.6349 34.1291 19.4574 34.1291 20.7273C34.1291 21.9972 33.5751 22.8494 32.5907 22.8494ZM40.5477 24.1278C42.0733 24.1278 43.1215 23.3821 43.3943 22.2443L41.9539 22.0824C41.7451 22.6364 41.2338 22.9261 40.569 22.9261C39.5718 22.9261 38.9113 22.2699 38.8985 21.1491H43.4582V20.6761C43.4582 18.3793 42.0775 17.3693 40.4667 17.3693C38.5917 17.3693 37.3687 18.7457 37.3687 20.7656C37.3687 22.8196 38.5747 24.1278 40.5477 24.1278ZM38.9028 20.1094C38.9497 19.2741 39.5676 18.571 40.488 18.571C41.3744 18.571 41.971 19.2188 41.9795 20.1094H38.9028ZM45.1232 24H46.6659V21.8011L47.2284 21.2003L49.2312 24H51.0764L48.3917 20.2798L50.9272 17.4545H49.1247L46.7724 20.0838H46.6659V15.2727H45.1232V24ZM52.3153 24H53.8579V17.4545H52.3153V24ZM53.0908 16.5256C53.5809 16.5256 53.9815 16.1506 53.9815 15.6903C53.9815 15.2259 53.5809 14.8509 53.0908 14.8509C52.5965 14.8509 52.196 15.2259 52.196 15.6903C52.196 16.1506 52.5965 16.5256 53.0908 16.5256ZM59.0726 17.4545H57.7814V15.8864H56.2388V17.4545H55.3099V18.6477H56.2388V22.2869C56.2303 23.5185 57.1252 24.1236 58.2843 24.0895C58.7232 24.0767 59.0258 23.9915 59.192 23.9361L58.932 22.7301C58.8468 22.7514 58.6721 22.7898 58.4803 22.7898C58.0925 22.7898 57.7814 22.6534 57.7814 22.0312V18.6477H59.0726V17.4545Z" fill="#36B37E"/>
<rect x="80" width="67" height="40" rx="8" fill="white"/>
<path d="M98.7074 18.0597H100.318C100.05 16.3466 98.5668 15.1534 96.6364 15.1534C94.3523 15.1534 92.6392 16.8324 92.6392 19.6449C92.6392 22.4062 94.2756 24.1193 96.6832 24.1193C98.8438 24.1193 100.391 22.7301 100.391 20.4801V19.4318H96.8494V20.6676H98.8608C98.8352 21.9119 98.0043 22.7003 96.6918 22.7003C95.2301 22.7003 94.2287 21.6051 94.2287 19.6278C94.2287 17.6634 95.2472 16.5724 96.6577 16.5724C97.7102 16.5724 98.4261 17.1349 98.7074 18.0597ZM102.621 24H104.164V17.4545H102.621V24ZM103.397 16.5256C103.887 16.5256 104.288 16.1506 104.288 15.6903C104.288 15.2259 103.887 14.8509 103.397 14.8509C102.903 14.8509 102.502 15.2259 102.502 15.6903C102.502 16.1506 102.903 16.5256 103.397 16.5256ZM109.379 17.4545H108.088V15.8864H106.545V17.4545H105.616V18.6477H106.545V22.2869C106.536 23.5185 107.431 24.1236 108.59 24.0895C109.029 24.0767 109.332 23.9915 109.498 23.9361L109.238 22.7301C109.153 22.7514 108.978 22.7898 108.786 22.7898C108.399 22.7898 108.088 22.6534 108.088 22.0312V18.6477H109.379V17.4545ZM111.238 24H112.819V20.2926H116.863V24H118.448V15.2727H116.863V18.9673H112.819V15.2727H111.238V24ZM124.631 21.2472C124.631 22.2443 123.919 22.7386 123.238 22.7386C122.496 22.7386 122.002 22.2145 122.002 21.3835V17.4545H120.459V21.6222C120.459 23.1946 121.354 24.0852 122.641 24.0852C123.621 24.0852 124.311 23.5696 124.61 22.8366H124.678V24H126.174V17.4545H124.631V21.2472ZM128.188 24H129.705V22.9688H129.795C130.038 23.446 130.545 24.1151 131.67 24.1151C133.212 24.1151 134.367 22.892 134.367 20.7358C134.367 18.554 133.178 17.3693 131.665 17.3693C130.511 17.3693 130.029 18.0639 129.795 18.5369H129.731V15.2727H128.188V24ZM129.701 20.7273C129.701 19.4574 130.246 18.6349 131.239 18.6349C132.266 18.6349 132.795 19.5085 132.795 20.7273C132.795 21.9545 132.258 22.8494 131.239 22.8494C130.255 22.8494 129.701 21.9972 129.701 20.7273Z" fill="#36B37E"/>
<rect x="155" width="79" height="40" rx="8" fill="white"/>
<path d="M175.331 18.2173C175.062 16.2784 173.571 15.1534 171.636 15.1534C169.357 15.1534 167.639 16.8153 167.639 19.6364C167.639 22.4531 169.335 24.1193 171.636 24.1193C173.712 24.1193 175.088 22.777 175.331 21.1108L173.737 21.1023C173.537 22.125 172.702 22.7003 171.658 22.7003C170.243 22.7003 169.229 21.6392 169.229 19.6364C169.229 17.6676 170.234 16.5724 171.662 16.5724C172.723 16.5724 173.554 17.1733 173.737 18.2173H175.331ZM179.926 24.1278C181.843 24.1278 183.062 22.777 183.062 20.7528C183.062 18.7244 181.843 17.3693 179.926 17.3693C178.008 17.3693 176.789 18.7244 176.789 20.7528C176.789 22.777 178.008 24.1278 179.926 24.1278ZM179.934 22.892C178.873 22.892 178.353 21.946 178.353 20.7486C178.353 19.5511 178.873 18.5923 179.934 18.5923C180.978 18.5923 181.498 19.5511 181.498 20.7486C181.498 21.946 180.978 22.892 179.934 22.892ZM187.16 24.1151C188.285 24.1151 188.792 23.446 189.035 22.9688H189.129V24H190.646V15.2727H189.099V18.5369H189.035C188.801 18.0639 188.319 17.3693 187.165 17.3693C185.652 17.3693 184.463 18.554 184.463 20.7358C184.463 22.892 185.618 24.1151 187.16 24.1151ZM187.591 22.8494C186.572 22.8494 186.035 21.9545 186.035 20.7273C186.035 19.5085 186.564 18.6349 187.591 18.6349C188.584 18.6349 189.129 19.4574 189.129 20.7273C189.129 21.9972 188.575 22.8494 187.591 22.8494ZM195.548 24.1278C197.073 24.1278 198.122 23.3821 198.394 22.2443L196.954 22.0824C196.745 22.6364 196.234 22.9261 195.569 22.9261C194.572 22.9261 193.911 22.2699 193.899 21.1491H198.458V20.6761C198.458 18.3793 197.078 17.3693 195.467 17.3693C193.592 17.3693 192.369 18.7457 192.369 20.7656C192.369 22.8196 193.575 24.1278 195.548 24.1278ZM193.903 20.1094C193.95 19.2741 194.568 18.571 195.488 18.571C196.374 18.571 196.971 19.2188 196.98 20.1094H193.903ZM200.123 26.4545H201.666V22.9688H201.73C201.973 23.446 202.48 24.1151 203.605 24.1151C205.147 24.1151 206.302 22.892 206.302 20.7358C206.302 18.554 205.113 17.3693 203.601 17.3693C202.446 17.3693 201.964 18.0639 201.73 18.5369H201.64V17.4545H200.123V26.4545ZM201.636 20.7273C201.636 19.4574 202.181 18.6349 203.174 18.6349C204.201 18.6349 204.73 19.5085 204.73 20.7273C204.73 21.9545 204.193 22.8494 203.174 22.8494C202.19 22.8494 201.636 21.9972 201.636 20.7273ZM210.881 24.1278C212.407 24.1278 213.455 23.3821 213.728 22.2443L212.287 22.0824C212.078 22.6364 211.567 22.9261 210.902 22.9261C209.905 22.9261 209.245 22.2699 209.232 21.1491H213.791V20.6761C213.791 18.3793 212.411 17.3693 210.8 17.3693C208.925 17.3693 207.702 18.7457 207.702 20.7656C207.702 22.8196 208.908 24.1278 210.881 24.1278ZM209.236 20.1094C209.283 19.2741 209.901 18.571 210.821 18.571C211.708 18.571 212.304 19.2188 212.313 20.1094H209.236ZM216.999 20.1648C216.999 19.2188 217.57 18.6733 218.384 18.6733C219.181 18.6733 219.658 19.1974 219.658 20.071V24H221.201V19.8324C221.205 18.2642 220.31 17.3693 218.959 17.3693C217.979 17.3693 217.306 17.8381 217.008 18.5668H216.931V17.4545H215.457V24H216.999V20.1648Z" fill="#36B37E"/>
<rect x="242" width="61" height="40" rx="8" fill="white"/>
<path d="M260.707 18.0597H262.318C262.05 16.3466 260.567 15.1534 258.636 15.1534C256.352 15.1534 254.639 16.8324 254.639 19.6449C254.639 22.4062 256.276 24.1193 258.683 24.1193C260.844 24.1193 262.391 22.7301 262.391 20.4801V19.4318H258.849V20.6676H260.861C260.835 21.9119 260.004 22.7003 258.692 22.7003C257.23 22.7003 256.229 21.6051 256.229 19.6278C256.229 17.6634 257.247 16.5724 258.658 16.5724C259.71 16.5724 260.426 17.1349 260.707 18.0597ZM264.621 24H266.164V17.4545H264.621V24ZM265.397 16.5256C265.887 16.5256 266.288 16.1506 266.288 15.6903C266.288 15.2259 265.887 14.8509 265.397 14.8509C264.903 14.8509 264.502 15.2259 264.502 15.6903C264.502 16.1506 264.903 16.5256 265.397 16.5256ZM271.379 17.4545H270.088V15.8864H268.545V17.4545H267.616V18.6477H268.545V22.2869C268.536 23.5185 269.431 24.1236 270.59 24.0895C271.029 24.0767 271.332 23.9915 271.498 23.9361L271.238 22.7301C271.153 22.7514 270.978 22.7898 270.786 22.7898C270.399 22.7898 270.088 22.6534 270.088 22.0312V18.6477H271.379V17.4545ZM274.712 15.2727H273.169V24H274.712V15.2727ZM278.542 24.1321C279.569 24.1321 280.183 23.6506 280.464 23.1009H280.515V24H281.998V19.6193C281.998 17.8892 280.587 17.3693 279.339 17.3693C277.962 17.3693 276.906 17.983 276.565 19.1761L278.005 19.3807C278.158 18.9332 278.593 18.5497 279.347 18.5497C280.063 18.5497 280.455 18.9162 280.455 19.5597V19.5852C280.455 20.0284 279.991 20.0497 278.836 20.1733C277.566 20.3097 276.352 20.6889 276.352 22.1634C276.352 23.4503 277.293 24.1321 278.542 24.1321ZM278.942 22.9986C278.299 22.9986 277.839 22.7045 277.839 22.1378C277.839 21.5455 278.354 21.2983 279.045 21.2003C279.45 21.1449 280.259 21.0426 280.46 20.8807V21.652C280.46 22.3807 279.871 22.9986 278.942 22.9986ZM283.977 24H285.494V22.9688H285.584C285.827 23.446 286.334 24.1151 287.459 24.1151C289.001 24.1151 290.156 22.892 290.156 20.7358C290.156 18.554 288.967 17.3693 287.454 17.3693C286.3 17.3693 285.818 18.0639 285.584 18.5369H285.52V15.2727H283.977V24ZM285.49 20.7273C285.49 19.4574 286.035 18.6349 287.028 18.6349C288.055 18.6349 288.584 19.5085 288.584 20.7273C288.584 21.9545 288.047 22.8494 287.028 22.8494C286.044 22.8494 285.49 21.9972 285.49 20.7273Z" fill="#36B37E"/>
</g>
<g clip-path="url(#clip2_48_1485)">
<rect x="113" y="48" width="77" height="40" rx="8" fill="white"/>
<path d="M125.477 64.598H128.175V72H129.743V64.598H132.44V63.2727H125.477V64.598ZM136.023 72.1278C137.549 72.1278 138.597 71.3821 138.87 70.2443L137.429 70.0824C137.22 70.6364 136.709 70.9261 136.044 70.9261C135.047 70.9261 134.387 70.2699 134.374 69.1491H138.934V68.6761C138.934 66.3793 137.553 65.3693 135.942 65.3693C134.067 65.3693 132.844 66.7457 132.844 68.7656C132.844 70.8196 134.05 72.1278 136.023 72.1278ZM134.378 68.1094C134.425 67.2741 135.043 66.571 135.963 66.571C136.85 66.571 137.446 67.2188 137.455 68.1094H134.378ZM140.599 72H142.141V68.152C142.141 67.321 142.768 66.733 143.616 66.733C143.876 66.733 144.199 66.7798 144.332 66.8224V65.4034C144.191 65.3778 143.948 65.3608 143.778 65.3608C143.028 65.3608 142.401 65.7869 142.162 66.5455H142.094V65.4545H140.599V72ZM145.716 72H147.259V68.0199C147.259 67.2145 147.796 66.669 148.461 66.669C149.113 66.669 149.56 67.108 149.56 67.7812V72H151.073V67.9176C151.073 67.1804 151.512 66.669 152.258 66.669C152.88 66.669 153.374 67.0355 153.374 67.8452V72H154.921V67.6065C154.921 66.1449 154.077 65.3693 152.875 65.3693C151.925 65.3693 151.201 65.8381 150.911 66.5668H150.843C150.591 65.8253 149.956 65.3693 149.074 65.3693C148.196 65.3693 147.54 65.821 147.267 66.5668H147.191V65.4545H145.716V72ZM156.846 72H158.389V65.4545H156.846V72ZM157.621 64.5256C158.112 64.5256 158.512 64.1506 158.512 63.6903C158.512 63.2259 158.112 62.8509 157.621 62.8509C157.127 62.8509 156.727 63.2259 156.727 63.6903C156.727 64.1506 157.127 64.5256 157.621 64.5256ZM161.877 68.1648C161.877 67.2188 162.448 66.6733 163.262 66.6733C164.059 66.6733 164.537 67.1974 164.537 68.071V72H166.079V67.8324C166.083 66.2642 165.188 65.3693 163.838 65.3693C162.858 65.3693 162.184 65.8381 161.886 66.5668H161.809V65.4545H160.335V72H161.877V68.1648ZM169.891 72.1321C170.918 72.1321 171.531 71.6506 171.813 71.1009H171.864V72H173.347V67.6193C173.347 65.8892 171.936 65.3693 170.688 65.3693C169.311 65.3693 168.254 65.983 167.914 67.1761L169.354 67.3807C169.507 66.9332 169.942 66.5497 170.696 66.5497C171.412 66.5497 171.804 66.9162 171.804 67.5597V67.5852C171.804 68.0284 171.34 68.0497 170.185 68.1733C168.915 68.3097 167.7 68.6889 167.7 70.1634C167.7 71.4503 168.642 72.1321 169.891 72.1321ZM170.291 70.9986C169.648 70.9986 169.188 70.7045 169.188 70.1378C169.188 69.5455 169.703 69.2983 170.394 69.2003C170.798 69.1449 171.608 69.0426 171.808 68.8807V69.652C171.808 70.3807 171.22 70.9986 170.291 70.9986ZM176.801 63.2727H175.258V72H176.801V63.2727Z" fill="#36B37E"/>
</g>
</g>
<defs>
<clipPath id="clip0_48_1485">
<rect width="303" height="88" fill="white"/>
</clipPath>
<clipPath id="clip1_48_1485">
<rect width="303" height="40" fill="white"/>
</clipPath>
<clipPath id="clip2_48_1485">
<rect width="77" height="40" fill="white" transform="translate(113 48)"/>
</clipPath>
</defs>
</svg>
