<svg width="305" height="32" viewBox="0 0 305 32" fill="none" xmlns="http://www.w3.org/2000/svg">
<g clip-path="url(#clip0_48_1316)">
<rect width="103" height="32" rx="4" fill="#EBF0EE"/>
<path d="M12.8608 20H14.4418V16.804H16.0526L17.7656 20H19.5298L17.642 16.5398C18.669 16.1264 19.2102 15.2486 19.2102 14.0639C19.2102 12.3977 18.1364 11.2727 16.1335 11.2727H12.8608V20ZM14.4418 15.4915V12.5938H15.8906C17.071 12.5938 17.5994 13.1349 17.5994 14.0639C17.5994 14.9929 17.071 15.4915 15.8991 15.4915H14.4418ZM25.1292 17.2472C25.1292 18.2443 24.4175 18.7386 23.7357 18.7386C22.9942 18.7386 22.4999 18.2145 22.4999 17.3835V13.4545H20.9573V17.6222C20.9573 19.1946 21.8522 20.0852 23.1391 20.0852C24.1192 20.0852 24.8096 19.5696 25.1079 18.8366H25.1761V20H26.6718V13.4545H25.1292V17.2472ZM28.6863 20H30.2033V18.9688H30.2928C30.5357 19.446 31.0428 20.1151 32.1678 20.1151C33.7104 20.1151 34.8652 18.892 34.8652 16.7358C34.8652 14.554 33.6763 13.3693 32.1635 13.3693C31.0087 13.3693 30.5272 14.0639 30.2928 14.5369H30.2289V11.2727H28.6863V20ZM30.199 16.7273C30.199 15.4574 30.7445 14.6349 31.7374 14.6349C32.7644 14.6349 33.2928 15.5085 33.2928 16.7273C33.2928 17.9545 32.7559 18.8494 31.7374 18.8494C30.753 18.8494 30.199 17.9972 30.199 16.7273ZM37.2728 22.4418C38.4745 22.4418 39.1691 21.8196 39.5399 20.7926L42.1691 13.4631L40.52 13.4545L39.0072 18.3977H38.939L37.4305 13.4545H35.7941L38.1677 20.1364L38.0356 20.4901C37.7416 21.2145 37.2984 21.2699 36.6251 21.0781L36.2671 22.2756C36.476 22.3651 36.851 22.4418 37.2728 22.4418ZM49.7915 20.1278C51.7091 20.1278 52.9278 18.777 52.9278 16.7528C52.9278 14.7244 51.7091 13.3693 49.7915 13.3693C47.8739 13.3693 46.6551 14.7244 46.6551 16.7528C46.6551 18.777 47.8739 20.1278 49.7915 20.1278ZM49.8 18.892C48.7389 18.892 48.219 17.946 48.219 16.7486C48.219 15.5511 48.7389 14.5923 49.8 14.5923C50.844 14.5923 51.3639 15.5511 51.3639 16.7486C51.3639 17.946 50.844 18.892 49.8 18.892ZM56.1398 16.1648C56.1398 15.2188 56.7108 14.6733 57.5247 14.6733C58.3216 14.6733 58.7988 15.1974 58.7988 16.071V20H60.3415V15.8324C60.3457 14.2642 59.4508 13.3693 58.1 13.3693C57.1199 13.3693 56.4466 13.8381 56.1483 14.5668H56.0716V13.4545H54.5971V20H56.1398V16.1648ZM65.6062 20H67.1488V16.152C67.1488 15.321 67.7752 14.733 68.6233 14.733C68.8832 14.733 69.2071 14.7798 69.3392 14.8224V13.4034C69.1985 13.3778 68.9556 13.3608 68.7852 13.3608C68.0352 13.3608 67.4088 13.7869 67.1701 14.5455H67.1019V13.4545H65.6062V20ZM72.4786 20.1321C73.5056 20.1321 74.1193 19.6506 74.4005 19.1009H74.4516V20H75.9346V15.6193C75.9346 13.8892 74.5241 13.3693 73.2755 13.3693C71.8991 13.3693 70.8423 13.983 70.5014 15.1761L71.9417 15.3807C72.0951 14.9332 72.5298 14.5497 73.284 14.5497C73.9999 14.5497 74.392 14.9162 74.392 15.5597V15.5852C74.392 16.0284 73.9275 16.0497 72.7727 16.1733C71.5028 16.3097 70.2883 16.6889 70.2883 18.1634C70.2883 19.4503 71.2301 20.1321 72.4786 20.1321ZM72.8792 18.9986C72.2357 18.9986 71.7755 18.7045 71.7755 18.1378C71.7755 17.5455 72.2911 17.2983 72.9815 17.2003C73.3863 17.1449 74.196 17.0426 74.3963 16.8807V17.652C74.3963 18.3807 73.8082 18.9986 72.8792 18.9986ZM77.8457 20H79.3884V13.4545H77.8457V20ZM78.6213 12.5256C79.1114 12.5256 79.5119 12.1506 79.5119 11.6903C79.5119 11.2259 79.1114 10.8509 78.6213 10.8509C78.127 10.8509 77.7264 11.2259 77.7264 11.6903C77.7264 12.1506 78.127 12.5256 78.6213 12.5256ZM82.8773 11.2727H81.3346V20H82.8773V11.2727ZM89.9968 15.1847C89.7838 14.0767 88.8974 13.3693 87.3633 13.3693C85.7866 13.3693 84.7128 14.1449 84.717 15.3551C84.7128 16.3097 85.3008 16.9403 86.5579 17.2003L87.6744 17.4347C88.2753 17.5668 88.5565 17.8097 88.5565 18.1804C88.5565 18.6278 88.0707 18.9645 87.3378 18.9645C86.6304 18.9645 86.1701 18.6577 86.038 18.0696L84.5338 18.2145C84.7255 19.4162 85.7355 20.1278 87.342 20.1278C88.9784 20.1278 90.1332 19.2798 90.1375 18.0398C90.1332 17.1065 89.5324 16.5355 88.2966 16.267L87.1801 16.0284C86.5153 15.8793 86.2511 15.6491 86.2554 15.2699C86.2511 14.8267 86.7412 14.5199 87.3846 14.5199C88.0963 14.5199 88.4713 14.9077 88.5906 15.3381L89.9968 15.1847Z" fill="#3A4A42"/>
<rect x="111" width="45" height="32" rx="4" fill="#EBF0EE"/>
<path d="M126.648 20.1278C128.293 20.1278 129.341 19.152 129.452 17.7628H127.977C127.845 18.4659 127.338 18.8707 126.661 18.8707C125.697 18.8707 125.075 18.0653 125.075 16.7273C125.075 15.4062 125.71 14.6136 126.661 14.6136C127.402 14.6136 127.858 15.0909 127.977 15.7216H129.452C129.345 14.3026 128.237 13.3693 126.639 13.3693C124.722 13.3693 123.511 14.7543 123.511 16.7528C123.511 18.7344 124.692 20.1278 126.648 20.1278ZM136.252 15.1847C136.039 14.0767 135.152 13.3693 133.618 13.3693C132.041 13.3693 130.968 14.1449 130.972 15.3551C130.968 16.3097 131.556 16.9403 132.813 17.2003L133.929 17.4347C134.53 17.5668 134.811 17.8097 134.811 18.1804C134.811 18.6278 134.326 18.9645 133.593 18.9645C132.885 18.9645 132.425 18.6577 132.293 18.0696L130.789 18.2145C130.98 19.4162 131.99 20.1278 133.597 20.1278C135.233 20.1278 136.388 19.2798 136.392 18.0398C136.388 17.1065 135.787 16.5355 134.551 16.267L133.435 16.0284C132.77 15.8793 132.506 15.6491 132.51 15.2699C132.506 14.8267 132.996 14.5199 133.639 14.5199C134.351 14.5199 134.726 14.9077 134.845 15.3381L136.252 15.1847ZM143.198 15.1847C142.985 14.0767 142.098 13.3693 140.564 13.3693C138.987 13.3693 137.914 14.1449 137.918 15.3551C137.914 16.3097 138.502 16.9403 139.759 17.2003L140.875 17.4347C141.476 17.5668 141.757 17.8097 141.757 18.1804C141.757 18.6278 141.271 18.9645 140.539 18.9645C139.831 18.9645 139.371 18.6577 139.239 18.0696L137.735 18.2145C137.926 19.4162 138.936 20.1278 140.543 20.1278C142.179 20.1278 143.334 19.2798 143.338 18.0398C143.334 17.1065 142.733 16.5355 141.497 16.267L140.381 16.0284C139.716 15.8793 139.452 15.6491 139.456 15.2699C139.452 14.8267 139.942 14.5199 140.585 14.5199C141.297 14.5199 141.672 14.9077 141.791 15.3381L143.198 15.1847Z" fill="#3A4A42"/>
<rect x="164" width="82" height="32" rx="4" fill="#EBF0EE"/>
<path d="M180.304 11.2727V17.4091C180.3 18.3295 179.874 18.8196 179.115 18.8196C178.408 18.8196 177.935 18.3892 177.922 17.6818H176.349C176.349 19.2926 177.526 20.1193 179.055 20.1193C180.739 20.1193 181.868 19.0966 181.872 17.4091V11.2727H180.304ZM185.763 20.1321C186.79 20.1321 187.403 19.6506 187.685 19.1009H187.736V20H189.219V15.6193C189.219 13.8892 187.808 13.3693 186.56 13.3693C185.183 13.3693 184.126 13.983 183.785 15.1761L185.226 15.3807C185.379 14.9332 185.814 14.5497 186.568 14.5497C187.284 14.5497 187.676 14.9162 187.676 15.5597V15.5852C187.676 16.0284 187.212 16.0497 186.057 16.1733C184.787 16.3097 183.572 16.6889 183.572 18.1634C183.572 19.4503 184.514 20.1321 185.763 20.1321ZM186.163 18.9986C185.52 18.9986 185.06 18.7045 185.06 18.1378C185.06 17.5455 185.575 17.2983 186.266 17.2003C186.67 17.1449 187.48 17.0426 187.68 16.8807V17.652C187.68 18.3807 187.092 18.9986 186.163 18.9986ZM196.742 13.4545H195.101L193.593 18.3168H193.525L192.02 13.4545H190.376L192.707 20H194.411L196.742 13.4545ZM202.981 13.6719H204.502C204.472 12.1974 203.215 11.1534 201.357 11.1534C199.525 11.1534 198.148 12.1847 198.152 13.7273C198.152 14.9801 199.043 15.7003 200.479 16.071L201.472 16.3267C202.414 16.5653 203.036 16.8594 203.04 17.5369C203.036 18.2827 202.329 18.7812 201.297 18.7812C200.309 18.7812 199.542 18.3381 199.478 17.4219H197.922C197.986 19.1562 199.277 20.1321 201.31 20.1321C203.402 20.1321 204.617 19.0881 204.621 17.5497C204.617 16.0369 203.368 15.3466 202.056 15.0355L201.238 14.831C200.522 14.6605 199.746 14.358 199.755 13.6293C199.759 12.973 200.347 12.4915 201.336 12.4915C202.277 12.4915 202.9 12.9304 202.981 13.6719ZM209.178 20.1278C210.822 20.1278 211.871 19.152 211.982 17.7628H210.507C210.375 18.4659 209.868 18.8707 209.19 18.8707C208.227 18.8707 207.605 18.0653 207.605 16.7273C207.605 15.4062 208.24 14.6136 209.19 14.6136C209.932 14.6136 210.388 15.0909 210.507 15.7216H211.982C211.875 14.3026 210.767 13.3693 209.169 13.3693C207.251 13.3693 206.041 14.7543 206.041 16.7528C206.041 18.7344 207.222 20.1278 209.178 20.1278ZM213.608 20H215.151V16.152C215.151 15.321 215.777 14.733 216.625 14.733C216.885 14.733 217.209 14.7798 217.341 14.8224V13.4034C217.201 13.3778 216.958 13.3608 216.787 13.3608C216.037 13.3608 215.411 13.7869 215.172 14.5455H215.104V13.4545H213.608V20ZM218.726 20H220.269V13.4545H218.726V20ZM219.502 12.5256C219.992 12.5256 220.392 12.1506 220.392 11.6903C220.392 11.2259 219.992 10.8509 219.502 10.8509C219.007 10.8509 218.607 11.2259 218.607 11.6903C218.607 12.1506 219.007 12.5256 219.502 12.5256ZM222.215 22.4545H223.758V18.9688H223.821C224.064 19.446 224.571 20.1151 225.696 20.1151C227.239 20.1151 228.394 18.892 228.394 16.7358C228.394 14.554 227.205 13.3693 225.692 13.3693C224.537 13.3693 224.056 14.0639 223.821 14.5369H223.732V13.4545H222.215V22.4545ZM223.728 16.7273C223.728 15.4574 224.273 14.6349 225.266 14.6349C226.293 14.6349 226.821 15.5085 226.821 16.7273C226.821 17.9545 226.285 18.8494 225.266 18.8494C224.282 18.8494 223.728 17.9972 223.728 16.7273ZM233.343 13.4545H232.052V11.8864H230.51V13.4545H229.581V14.6477H230.51V18.2869C230.501 19.5185 231.396 20.1236 232.555 20.0895C232.994 20.0767 233.297 19.9915 233.463 19.9361L233.203 18.7301C233.118 18.7514 232.943 18.7898 232.751 18.7898C232.363 18.7898 232.052 18.6534 232.052 18.0312V14.6477H233.343V13.4545Z" fill="#3A4A42"/>
<rect x="254" width="51" height="32" rx="4" fill="#EBF0EE"/>
<path d="M268.335 16.1648C268.335 15.2188 268.923 14.6733 269.75 14.6733C270.56 14.6733 271.037 15.1889 271.037 16.071V20H272.58V15.8324C272.58 14.2514 271.685 13.3693 270.325 13.3693C269.32 13.3693 268.68 13.8253 268.378 14.5668H268.301V11.2727H266.793V20H268.335V16.1648ZM277.78 13.4545H276.489V11.8864H274.947V13.4545H274.018V14.6477H274.947V18.2869C274.938 19.5185 275.833 20.1236 276.992 20.0895C277.431 20.0767 277.734 19.9915 277.9 19.9361L277.64 18.7301C277.555 18.7514 277.38 18.7898 277.188 18.7898C276.8 18.7898 276.489 18.6534 276.489 18.0312V14.6477H277.78V13.4545ZM279.431 20H280.973V16.0199C280.973 15.2145 281.51 14.669 282.175 14.669C282.827 14.669 283.274 15.108 283.274 15.7812V20H284.787V15.9176C284.787 15.1804 285.226 14.669 285.972 14.669C286.594 14.669 287.088 15.0355 287.088 15.8452V20H288.635V15.6065C288.635 14.1449 287.791 13.3693 286.59 13.3693C285.639 13.3693 284.915 13.8381 284.625 14.5668H284.557C284.306 13.8253 283.671 13.3693 282.789 13.3693C281.911 13.3693 281.254 13.821 280.982 14.5668H280.905V13.4545H279.431V20ZM292.103 11.2727H290.56V20H292.103V11.2727Z" fill="#3A4A42"/>
</g>
<defs>
<clipPath id="clip0_48_1316">
<rect width="305" height="32" fill="white"/>
</clipPath>
</defs>
</svg>
